<svg xmlns="http://www.w3.org/2000/svg" viewBox="0 0 42.38 50.65"><defs><style>.cls-1{fill:#ffd983;}.cls-1,.cls-2{fill-rule:evenodd;}.cls-2{fill:#f2f2f2;}.cls-3{fill:none;stroke:#000;stroke-linecap:round;stroke-linejoin:round;}</style></defs><title>Asset 8</title><g id="Layer_2" data-name="Layer 2"><g id="Layer_1-2" data-name="Layer 1"><path class="cls-1" d="M4.64.5.5,29.46H41.88L37.74.5ZM29.46,50.15A4.14,4.14,0,0,0,25.33,46H17.05a4.15,4.15,0,0,0-4.14,4.14H29.46Z"/><path class="cls-2" d="M8.78,37.74a2.07,2.07,0,1,1-2.07,2.07A2.07,2.07,0,0,1,8.78,37.74ZM19.12,46h4.14V29.46H19.12Z"/><polygon class="cls-3" points="4.64 0.5 0.5 29.46 41.88 29.46 37.74 0.5 4.64 0.5"/><polygon class="cls-3" points="12.58 0.5 10.43 29.46 31.95 29.46 29.8 0.5 12.58 0.5"/><line class="cls-3" x1="21.19" y1="0.5" x2="21.19" y2="29.46"/><line class="cls-3" x1="20.92" y1="50.15" x2="21.45" y2="50.15"/><path class="cls-3" d="M25.33,50.15h4.13A4.14,4.14,0,0,0,25.33,46H17.05a4.15,4.15,0,0,0-4.14,4.14h4.14"/><rect class="cls-3" x="19.12" y="29.46" width="4.14" height="16.55"/><line class="cls-3" x1="8.78" y1="29.46" x2="8.78" y2="37.74"/><path class="cls-3" d="M8.78,37.74a2.07,2.07,0,1,1-2.07,2.07A2.07,2.07,0,0,1,8.78,37.74Z"/></g></g></svg>