<svg xmlns="http://www.w3.org/2000/svg" viewBox="0 0 50.65 42.38"><defs><style>.cls-1{fill:#ffd983;}.cls-2{fill:#f2f2f2;fill-rule:evenodd;}.cls-3{fill:none;stroke:#000;stroke-linecap:round;stroke-linejoin:round;}</style></defs><title>Asset 2</title><g id="Layer_2" data-name="Layer 2"><g id="Layer_1-2" data-name="Layer 1"><rect class="cls-1" x="4.64" y="4.64" width="41.38" height="33.1"/><path class="cls-2" d="M.5,4.64H50.15V.5H.5ZM33.6,17.05H17.05a8.28,8.28,0,1,0,16.55,0Zm6.21,24.83H44V37.74H39.81Zm-33.1,0h4.13V37.74H6.71Z"/><rect class="cls-3" x="6.71" y="37.74" width="4.14" height="4.14"/><rect class="cls-3" x="39.81" y="37.74" width="4.14" height="4.14"/><line class="cls-3" x1="4.64" y1="17.05" x2="46.01" y2="17.05"/><path class="cls-3" d="M33.6,17.05H17.05a8.28,8.28,0,1,0,16.55,0Z"/><rect class="cls-3" x="0.5" y="0.5" width="49.65" height="4.14"/><line class="cls-3" x1="25.12" y1="37.74" x2="25.54" y2="37.74"/><polyline class="cls-3" points="29.46 37.74 46.02 37.74 46.02 4.64 4.64 4.64 4.64 37.74 21.19 37.74"/></g></g></svg>