<svg xmlns="http://www.w3.org/2000/svg" viewBox="0 0 34.1 50.65"><defs><style>.cls-1{fill:#ff749a;}.cls-2{fill:#f2f2f2;fill-rule:evenodd;}.cls-3{fill:none;stroke:#000;stroke-linecap:round;stroke-linejoin:round;}</style></defs><title>Asset 16</title><g id="Layer_2" data-name="Layer 2"><g id="Layer_1-2" data-name="Layer 1"><rect class="cls-1" x="0.5" y="17.05" width="33.1" height="33.1"/><path class="cls-2" d="M25.33,4.64A4.14,4.14,0,0,0,21.19.5H12.91A4.13,4.13,0,0,0,8.78,4.64V8.78H25.33ZM17.05,21.19A12.41,12.41,0,1,1,4.64,33.6,12.41,12.41,0,0,1,17.05,21.19Z"/><line class="cls-3" x1="16.81" y1="50.15" x2="17.29" y2="50.15"/><polyline class="cls-3" points="21.19 50.15 33.6 50.15 33.6 17.05 0.5 17.05 0.5 50.15 12.91 50.15"/><circle class="cls-3" cx="17.05" cy="33.6" r="12.41"/><line class="cls-3" x1="12.91" y1="31.53" x2="12.91" y2="35.67"/><line class="cls-3" x1="21.19" y1="31.53" x2="21.19" y2="35.67"/><line class="cls-3" x1="12.91" y1="12.91" x2="12.91" y2="8.78"/><line class="cls-3" x1="21.19" y1="12.91" x2="21.19" y2="8.78"/><path class="cls-3" d="M25.33,4.64A4.14,4.14,0,0,0,21.19.5H12.91A4.13,4.13,0,0,0,8.78,4.64V8.78H25.33Z"/></g></g></svg>