<svg xmlns="http://www.w3.org/2000/svg" viewBox="0 0 50.65 50.65"><defs><style>.cls-1{fill:#ff749a;}.cls-2{fill:#f2f2f2;fill-rule:evenodd;}.cls-3{fill:none;stroke:#000;stroke-linecap:round;stroke-linejoin:round;}</style></defs><title>Asset 10</title><g id="Layer_2" data-name="Layer 2"><g id="Layer_1-2" data-name="Layer 1"><rect class="cls-1" x="0.5" y="0.5" width="49.65" height="49.65"/><path class="cls-2" d="M25.33.66V.5A24.83,24.83,0,0,1,.5,25.33,16.55,16.55,0,0,1,17.05,41.88v8.27H33.6V41.88A16.55,16.55,0,0,1,50.15,25.33,24.82,24.82,0,0,1,25.33.66Z"/><line class="cls-3" x1="25.03" y1="50.15" x2="25.62" y2="50.15"/><polyline class="cls-3" points="29.46 50.15 50.15 50.15 50.15 0.5 0.5 0.5 0.5 50.15 21.19 50.15"/><path class="cls-3" d="M25.33.5h0A24.83,24.83,0,0,1,.5,25.33,16.55,16.55,0,0,1,17.05,41.88v8.27"/><path class="cls-3" d="M25.33.5h0A24.83,24.83,0,0,0,50.15,25.33,16.55,16.55,0,0,0,33.6,41.88v8.27"/><path class="cls-3" d="M17.05.5h0C17.05,14.21,9.64,25.33.5,25.33c6.09,0,11,7.41,11,16.55v8.27"/><path class="cls-3" d="M33.6.5h0c0,13.71,7.41,24.83,16.55,24.83-6.09,0-11,7.41-11,16.55v8.27"/><path class="cls-3" d="M8.78.5h0C8.78,14.21,5.07,25.33.5,25.33,3.55,25.33,6,32.74,6,41.88v8.27"/><path class="cls-3" d="M41.88.5h0c0,13.71,3.7,24.83,8.27,24.83-3,0-5.51,7.41-5.51,16.55v8.27"/></g></g></svg>