<svg xmlns="http://www.w3.org/2000/svg" viewBox="0 0 42.38 50.65"><defs><style>.cls-1{fill:#f2f2f2;}.cls-1,.cls-2{fill-rule:evenodd;}.cls-2{fill:#ff749a;}.cls-3{fill:none;stroke:#000;stroke-linecap:round;stroke-linejoin:round;}</style></defs><title>Asset 20</title><g id="Layer_2" data-name="Layer 2"><g id="Layer_1-2" data-name="Layer 1"><path class="cls-1" d="M25.33,12.9a13.18,13.18,0,0,0,6.32,11.25,20.52,20.52,0,0,1,8.5,26H2.22a20.71,20.71,0,0,1,8.45-26.09A13.06,13.06,0,0,0,17,12.9c.1-2.29.1-4.12.1-4.12h8.28Z"/><path class="cls-2" d="M21.19,33.6a4.14,4.14,0,1,1-4.14,4.14A4.15,4.15,0,0,1,21.19,33.6ZM41.46,46H.91l1.31,4.14H40.15Z"/><line class="cls-3" x1="21.48" y1="50.15" x2="20.9" y2="50.15"/><path class="cls-3" d="M17.05,50.15H2.22a20.71,20.71,0,0,1,8.45-26.09A13.06,13.06,0,0,0,17,12.9c.1-2.29.1-4.12.1-4.12h8.28V12.9a13.18,13.18,0,0,0,6.32,11.25,20.52,20.52,0,0,1,8.5,26H25.33"/><line class="cls-3" x1="21.19" y1="4.64" x2="21.19" y2="0.5"/><path class="cls-3" d="M17.05,4.64h0A4.14,4.14,0,0,0,12.91.5"/><path class="cls-3" d="M25.33,4.64h0A4.13,4.13,0,0,1,29.46.5"/><circle class="cls-3" cx="21.19" cy="37.74" r="4.14"/><line class="cls-3" x1="41.46" y1="46.01" x2="0.91" y2="46.01"/></g></g></svg>