<svg xmlns="http://www.w3.org/2000/svg" viewBox="0 0 33.63 50.65"><defs><style>.cls-1{fill:#f2f2f2;}.cls-1,.cls-2{fill-rule:evenodd;}.cls-2{fill:#ffd983;}.cls-3{fill:none;stroke:#000;stroke-linecap:round;stroke-linejoin:round;}</style></defs><title>Asset 12</title><g id="Layer_2" data-name="Layer 2"><g id="Layer_1-2" data-name="Layer 1"><path class="cls-1" d="M17.16,10.62l4.32-8A4.17,4.17,0,0,1,24.53.54,4.12,4.12,0,0,1,28,1.71l3.88,3.87a4.13,4.13,0,0,1-1,6.56l-8,4.33Zm-6.54,5.85-8-4.33a4.13,4.13,0,0,1-2.12-3A4.18,4.18,0,0,1,1.71,5.58L5.58,1.71a4.13,4.13,0,0,1,6.56,1l4.33,8Zm8.26,9.71L17.16,23,23,17.16l8,4.32a4.14,4.14,0,0,1,1,6.56L28,31.92a4.15,4.15,0,0,1-6.56-1l-2.6-4.79V46H14.75V26.18L12.14,31a4.15,4.15,0,0,1-6.56,1L1.71,28a4.14,4.14,0,0,1,1-6.56l8-4.32L16.47,23l-1.72,3.17ZM6.42,46h4.19V41.88H6.42Z"/><path class="cls-2" d="M12.43,12.42a6.2,6.2,0,1,1,0,8.78A6.2,6.2,0,0,1,12.43,12.42ZM31.3,50.15A4.15,4.15,0,0,0,27.16,46H6.47a4.13,4.13,0,0,0-4.14,4.14h29Z"/><path class="cls-3" d="M12.43,12.42a6.2,6.2,0,1,1,0,8.78A6.2,6.2,0,0,1,12.43,12.42Z"/><path class="cls-3" d="M10.62,16.47l-8-4.33a4.13,4.13,0,0,1-2.12-3A4.18,4.18,0,0,1,1.71,5.58L5.58,1.71a4.13,4.13,0,0,1,6.56,1l4.33,8"/><path class="cls-3" d="M23,17.16l8,4.32a4.14,4.14,0,0,1,1,6.56L28,31.92a4.15,4.15,0,0,1-6.56-1l-4.32-8"/><path class="cls-3" d="M16.47,23l-4.33,8a4.15,4.15,0,0,1-6.56,1L1.71,28a4.14,4.14,0,0,1,1-6.56l8-4.32"/><path class="cls-3" d="M17.16,10.62l4.32-8A4.17,4.17,0,0,1,24.53.54,4.12,4.12,0,0,1,28,1.71l3.88,3.87a4.13,4.13,0,0,1-1,6.56l-8,4.33"/><line class="cls-3" x1="16.59" y1="50.15" x2="17.04" y2="50.15"/><path class="cls-3" d="M21,50.15H31.3A4.15,4.15,0,0,0,27.16,46H6.47a4.13,4.13,0,0,0-4.14,4.14H12.68"/><polyline class="cls-3" points="14.74 26.18 14.74 46.01 18.88 46.01 18.88 26.18"/><rect class="cls-3" x="6.42" y="41.88" width="4.19" height="4.14"/></g></g></svg>