<svg xmlns="http://www.w3.org/2000/svg" viewBox="0 0 50.65 34.1"><defs><style>.cls-1{fill:#67a5ff;}.cls-1,.cls-2{fill-rule:evenodd;}.cls-2{fill:#f2f2f2;}.cls-3{fill:none;stroke:#000;stroke-linecap:round;stroke-linejoin:round;}</style></defs><title>Asset 15</title><g id="Layer_2" data-name="Layer 2"><g id="Layer_1-2" data-name="Layer 1"><path class="cls-1" d="M50.15,4.64a4.13,4.13,0,0,0-1.21-2.93A4.17,4.17,0,0,0,46,.5H4.64A4.13,4.13,0,0,0,.5,4.64V21.19a4.15,4.15,0,0,0,4.14,4.14H46a4.14,4.14,0,0,0,2.93-1.22,4.09,4.09,0,0,0,1.21-2.92Z"/><path class="cls-2" d="M12.91,8.78H46V4.64H12.91Zm-8.27,0H8.78V4.64H4.64ZM41.88,25.32a8.28,8.28,0,0,0-8.27-8.27H17.05a8.26,8.26,0,0,0-8.27,8.27h33.1Z"/><path class="cls-3" d="M25.08,25.33h.49"/><path class="cls-3" d="M29.46,25.33H46a4.14,4.14,0,0,0,2.93-1.22,4.09,4.09,0,0,0,1.21-2.92V4.64a4.13,4.13,0,0,0-1.21-2.93A4.17,4.17,0,0,0,46,.5H4.64A4.13,4.13,0,0,0,.5,4.64V21.19a4.15,4.15,0,0,0,4.14,4.14H21.19"/><path class="cls-3" d="M41.88,25.32a8.28,8.28,0,0,0-8.27-8.27H17.05a8.26,8.26,0,0,0-8.27,8.27"/><line class="cls-3" x1="41.88" y1="25.33" x2="41.88" y2="25.32"/><rect class="cls-3" x="4.64" y="4.64" width="4.14" height="4.14"/><rect class="cls-3" x="12.91" y="4.64" width="33.1" height="4.14"/><line class="cls-3" x1="25.33" y1="29.46" x2="25.33" y2="33.6"/><path class="cls-3" d="M17.05,29.46h0a4.13,4.13,0,0,1-4.13,4.13h0"/><path class="cls-3" d="M33.6,29.46h0a4.13,4.13,0,0,0,4.14,4.13h0"/></g></g></svg>