<svg xmlns="http://www.w3.org/2000/svg" viewBox="0 0 50.65 34.1"><defs><style>.cls-1{fill:#c5dd7e;fill-rule:evenodd;}.cls-2{fill:none;stroke:#000;stroke-linecap:round;stroke-linejoin:round;}</style></defs><title>Asset 7</title><g id="Layer_2" data-name="Layer 2"><g id="Layer_1-2" data-name="Layer 1"><path class="cls-1" d="M42.43,2.57a4.14,4.14,0,1,1,5.65,5.65V25.88a4.14,4.14,0,1,1-5.65,5.65H8.22a4.14,4.14,0,1,1-5.65-5.65V8.22A4.14,4.14,0,1,1,8.22,2.57Z"/><line class="cls-2" x1="25.62" y1="31.53" x2="25.03" y2="31.53"/><path class="cls-2" d="M21.19,31.53h-13a4.14,4.14,0,1,1-5.65-5.65V8.22A4.14,4.14,0,1,1,8.22,2.57H42.43a4.14,4.14,0,1,1,5.65,5.65V25.88a4.14,4.14,0,1,1-5.65,5.65h-13"/><line class="cls-2" x1="8.78" y1="8.78" x2="8.78" y2="25.33"/><line class="cls-2" x1="41.88" y1="25.33" x2="41.88" y2="8.78"/></g></g></svg>