<svg xmlns="http://www.w3.org/2000/svg" viewBox="0 0 34.1 50.65"><defs><style>.cls-1{fill:#f2f2f2;}.cls-1,.cls-2,.cls-3,.cls-4{fill-rule:evenodd;}.cls-2{fill:#67a5ff;}.cls-3{fill:#c5dd7e;}.cls-4{fill:#ff749a;}.cls-5{fill:none;stroke:#000;stroke-linecap:round;stroke-linejoin:round;}</style></defs><title>Asset 1</title><g id="Layer_2" data-name="Layer 2"><g id="Layer_1-2" data-name="Layer 1"><path class="cls-1" d="M33.6,4.64a4.13,4.13,0,0,0-1.21-2.93A4.17,4.17,0,0,0,29.46.5H4.64A4.13,4.13,0,0,0,.5,4.64V46a4.17,4.17,0,0,0,1.21,2.93,4.13,4.13,0,0,0,2.93,1.21H29.46A4.13,4.13,0,0,0,33.6,46Z"/><path class="cls-2" d="M33.6,12.91H.5V46a4.17,4.17,0,0,0,1.21,2.93,4.13,4.13,0,0,0,2.93,1.21H29.46A4.13,4.13,0,0,0,33.6,46Z"/><polygon class="cls-3" points="0.5 12.91 33.6 12.91 33.6 17.05 0.5 29.46 0.5 12.91"/><path class="cls-4" d="M25.33,4.64A4.14,4.14,0,0,0,21.19.5H12.91a4.14,4.14,0,0,0,0,8.28h8.28A4.15,4.15,0,0,0,25.33,4.64Z"/><path class="cls-5" d="M.5,37.48V38"/><path class="cls-5" d="M.5,41.88V46a4.17,4.17,0,0,0,1.21,2.93,4.13,4.13,0,0,0,2.93,1.21H29.46A4.13,4.13,0,0,0,33.6,46V4.64a4.13,4.13,0,0,0-1.21-2.93A4.17,4.17,0,0,0,29.46.5H4.64A4.13,4.13,0,0,0,.5,4.64v29"/><polygon class="cls-5" points="0.5 12.91 33.6 12.91 33.6 17.05 0.5 29.46 0.5 12.91"/><path class="cls-5" d="M25.33,4.64A4.14,4.14,0,0,0,21.19.5H12.91a4.14,4.14,0,0,0,0,8.28h8.28A4.15,4.15,0,0,0,25.33,4.64Z"/></g></g></svg>