<svg xmlns="http://www.w3.org/2000/svg" viewBox="0 0 50.65 34.1"><defs><style>.cls-1{fill:#67a5ff;}.cls-1,.cls-3,.cls-4{fill-rule:evenodd;}.cls-2,.cls-3{fill:#f2f2f2;}.cls-4{fill:#c5dd7e;}.cls-5{fill:none;stroke:#000;stroke-linecap:round;stroke-linejoin:round;}</style></defs><title>Asset 13</title><g id="Layer_2" data-name="Layer 2"><g id="Layer_1-2" data-name="Layer 1"><path class="cls-1" d="M.5,29.46H4.64V33.6H8.78V29.46h33.1V33.6H46V29.46h4.14V21.19a4.13,4.13,0,0,0-1.21-2.93A4.17,4.17,0,0,0,46,17.05V8.78A8.28,8.28,0,0,0,37.74.5H12.91A8.28,8.28,0,0,0,4.64,8.78v8.27A4.13,4.13,0,0,0,.5,21.19Z"/><rect class="cls-2" x="0.5" y="25.33" width="49.65" height="4.14"/><path class="cls-3" d="M23.26,12.91a4.13,4.13,0,0,0-4.14-4.13H12.91a4.13,4.13,0,0,0-4.13,4.13v4.14H23.26Z"/><path class="cls-3" d="M41.88,12.91a4.13,4.13,0,0,0-4.14-4.13H31.53a4.13,4.13,0,0,0-4.13,4.13v4.14H41.88Z"/><path class="cls-4" d="M50.15,21.19a4.13,4.13,0,0,0-1.21-2.93A4.17,4.17,0,0,0,46,17.05H4.64A4.13,4.13,0,0,0,.5,21.19v4.14H50.15Z"/><rect class="cls-5" x="4.64" y="29.46" width="4.14" height="4.14"/><rect class="cls-5" x="41.88" y="29.46" width="4.14" height="4.14"/><line class="cls-5" x1="25.08" y1="29.46" x2="25.57" y2="29.46"/><path class="cls-5" d="M29.46,29.46H50.15V21.19a4.13,4.13,0,0,0-1.21-2.93A4.17,4.17,0,0,0,46,17.05H4.64A4.13,4.13,0,0,0,.5,21.19v8.27H21.19"/><path class="cls-5" d="M46,8.78A8.28,8.28,0,0,0,37.74.5H12.91A8.28,8.28,0,0,0,4.64,8.78v8.27H46Z"/><path class="cls-5" d="M23.26,12.91a4.13,4.13,0,0,0-4.14-4.13H12.91a4.13,4.13,0,0,0-4.13,4.13v4.14H23.26Z"/><path class="cls-5" d="M41.88,12.91a4.13,4.13,0,0,0-4.14-4.13H31.53a4.13,4.13,0,0,0-4.13,4.13v4.14H41.88Z"/><line class="cls-5" x1="0.5" y1="25.33" x2="50.15" y2="25.33"/></g></g></svg>