<svg xmlns="http://www.w3.org/2000/svg" viewBox="0 0 42.38 50.65"><defs><style>.cls-1{fill:#ffd983;}.cls-1,.cls-2{fill-rule:evenodd;}.cls-2{fill:#f2f2f2;}.cls-3{fill:none;stroke:#000;stroke-linecap:round;stroke-linejoin:round;}</style></defs><title>Asset 14</title><g id="Layer_2" data-name="Layer 2"><g id="Layer_1-2" data-name="Layer 1"><path class="cls-1" d="M37.74,29.46H4.64a7.54,7.54,0,0,0,1.21,2.93A4.13,4.13,0,0,0,8.78,33.6H33.6a4.13,4.13,0,0,0,2.93-1.21A7.71,7.71,0,0,0,37.74,29.46Zm0,16.55a2.07,2.07,0,1,1-2.07,2.07A2.07,2.07,0,0,1,37.74,46ZM4.64,46a2.07,2.07,0,1,1-2.07,2.07A2.07,2.07,0,0,1,4.64,46Zm16.55,0a2.07,2.07,0,1,1-2.07,2.07A2.07,2.07,0,0,1,21.19,46Z"/><path class="cls-2" d="M8.78,29.46H33.6V.5H8.78ZM19.12,46h4.14V33.6H19.12Z"/><line class="cls-3" x1="37.74" y1="46.01" x2="4.64" y2="46.01"/><path class="cls-3" d="M21.19,46a2.07,2.07,0,1,1-2.07,2.07A2.07,2.07,0,0,1,21.19,46Z"/><path class="cls-3" d="M4.64,46a2.07,2.07,0,1,1-2.07,2.07A2.07,2.07,0,0,1,4.64,46Z"/><path class="cls-3" d="M37.74,46a2.07,2.07,0,1,1-2.07,2.07A2.07,2.07,0,0,1,37.74,46Z"/><line class="cls-3" x1="19.12" y1="37.42" x2="19.12" y2="38.06"/><polyline class="cls-3" points="19.12 41.88 19.12 46.02 23.26 46.02 23.26 33.6 19.12 33.6"/><path class="cls-3" d="M37.74,29.46H4.64a7.54,7.54,0,0,0,1.21,2.93A4.13,4.13,0,0,0,8.78,33.6H33.6a4.13,4.13,0,0,0,2.93-1.21A7.71,7.71,0,0,0,37.74,29.46Z"/><polyline class="cls-3" points="4.64 29.46 4.64 25.33 0.5 25.33"/><polyline class="cls-3" points="37.74 29.46 37.74 25.33 41.88 25.33"/><rect class="cls-3" x="8.78" y="0.5" width="24.83" height="28.96"/></g></g></svg>