<svg xmlns="http://www.w3.org/2000/svg" viewBox="0 0 50.65 42.38"><defs><style>.cls-1{fill:#ffd983;}.cls-1,.cls-2{fill-rule:evenodd;}.cls-2{fill:#f2f2f2;}.cls-3{fill:none;stroke:#000;stroke-linecap:round;stroke-linejoin:round;}</style></defs><title>Asset 24</title><g id="Layer_2" data-name="Layer 2"><g id="Layer_1-2" data-name="Layer 1"><path class="cls-1" d="M6.71,17.05V8.78A8.26,8.26,0,0,1,15,.5H35.67A8.28,8.28,0,0,1,44,8.78v8.27a6.21,6.21,0,0,1,6.2,6.21v6.2a8.28,8.28,0,0,1-8.27,8.28H8.78A8.28,8.28,0,0,1,.5,29.46v-6.2A6.21,6.21,0,0,1,6.71,17.05Z"/><path class="cls-2" d="M35.67,6.71A2.07,2.07,0,1,1,33.6,8.78,2.07,2.07,0,0,1,35.67,6.71ZM15,6.71a2.07,2.07,0,1,1-2.07,2.07A2.07,2.07,0,0,1,15,6.71ZM37.74,29.46a4.13,4.13,0,0,0-4.14-4.13H17.05a4.13,4.13,0,0,0-4.14,4.13H37.74Zm0,12.42h4.14V37.74H37.74Zm-29,0h4.13V37.74H8.78Z"/><rect class="cls-3" x="8.78" y="37.74" width="4.14" height="4.14"/><rect class="cls-3" x="37.74" y="37.74" width="4.14" height="4.14"/><path class="cls-3" d="M37.74,29.46a4.13,4.13,0,0,0-4.14-4.13H17.05a4.13,4.13,0,0,0-4.14,4.13H37.74Z"/><path class="cls-3" d="M25.06,37.74h.53"/><path class="cls-3" d="M29.46,37.74H41.88a8.28,8.28,0,0,0,8.27-8.28v-6.2a6.21,6.21,0,1,0-12.41,0v6.2H12.91v-6.2a6.21,6.21,0,1,0-12.41,0v6.2a8.28,8.28,0,0,0,8.28,8.28H21.19"/><path class="cls-3" d="M6.71,17.05V8.78A8.26,8.26,0,0,1,15,.5H35.67A8.28,8.28,0,0,1,44,8.78v8.27"/><path class="cls-3" d="M15,6.71a2.07,2.07,0,1,1-2.07,2.07A2.07,2.07,0,0,1,15,6.71Z"/><path class="cls-3" d="M35.67,6.71A2.07,2.07,0,1,1,33.6,8.78,2.07,2.07,0,0,1,35.67,6.71Z"/></g></g></svg>