<svg xmlns="http://www.w3.org/2000/svg" viewBox="0 0 50.65 34.1"><defs><style>.cls-1{fill:#67a5ff;fill-rule:evenodd;}.cls-2{fill:#f2f2f2;}.cls-3{fill:none;stroke:#000;stroke-linecap:round;stroke-linejoin:round;}</style></defs><title>Asset 11</title><g id="Layer_2" data-name="Layer 2"><g id="Layer_1-2" data-name="Layer 1"><polygon class="cls-1" points="4.64 25.33 4.64 0.5 0.5 0.5 0.5 33.6 4.64 33.6 4.64 29.46 46.02 29.46 46.02 33.6 50.15 33.6 50.15 1.69 46.02 1.69 46.02 25.33 4.64 25.33"/><rect class="cls-2" x="4.64" y="4.64" width="41.38" height="20.69"/><line class="cls-3" x1="25.04" y1="29.46" x2="25.61" y2="29.46"/><polyline class="cls-3" points="29.46 29.46 46.02 29.46 46.02 33.6 50.15 33.6 50.15 1.69 46.02 1.69 46.02 25.33 4.64 25.33 4.64 0.5 0.5 0.5 0.5 33.6 4.64 33.6 4.64 29.46 21.19 29.46"/><rect class="cls-3" x="4.64" y="4.64" width="41.38" height="20.69"/><line class="cls-3" x1="46.01" y1="17.05" x2="4.64" y2="17.05"/><line class="cls-3" x1="8.78" y1="4.64" x2="8.78" y2="25.33"/><line class="cls-3" x1="12.91" y1="25.33" x2="12.91" y2="4.64"/><line class="cls-3" x1="17.05" y1="25.33" x2="17.05" y2="4.64"/><line class="cls-3" x1="21.19" y1="25.33" x2="21.19" y2="4.64"/><line class="cls-3" x1="25.33" y1="4.64" x2="25.33" y2="25.33"/><line class="cls-3" x1="29.46" y1="25.33" x2="29.46" y2="4.64"/><line class="cls-3" x1="33.6" y1="25.33" x2="33.6" y2="4.64"/><line class="cls-3" x1="37.74" y1="25.33" x2="37.74" y2="4.64"/><line class="cls-3" x1="41.88" y1="4.64" x2="41.88" y2="25.33"/></g></g></svg>