<svg xmlns="http://www.w3.org/2000/svg" viewBox="0 0 50.65 34.1"><defs><style>.cls-1{fill:#67a5ff;}.cls-2{fill:none;stroke:#000;stroke-linecap:round;stroke-linejoin:round;}.cls-3{fill:#f2f2f2;}.cls-4{fill:#c5dd7e;}.cls-4,.cls-5{fill-rule:evenodd;}.cls-5{fill:#ff749a;}</style></defs><title>Asset 19</title><g id="Layer_2" data-name="Layer 2"><g id="Layer_1-2" data-name="Layer 1"><rect class="cls-1" x="0.5" y="0.5" width="49.65" height="33.1"/><rect class="cls-2" x="0.5" y="0.5" width="49.65" height="33.1"/><rect class="cls-3" x="4.64" y="4.64" width="41.38" height="24.83"/><rect class="cls-2" x="4.64" y="4.64" width="41.38" height="24.83"/><polygon class="cls-4" points="25.33 25.33 41.84 8.81 46.02 12.91 46.02 29.46 29.46 29.46 29.55 29.55 4.64 29.46 17.05 17.05 25.33 25.33"/><path class="cls-5" d="M25.31,8.81a4.12,4.12,0,1,1-4.12,4.12A4.13,4.13,0,0,1,25.31,8.81Z"/><path class="cls-2" d="M25.31,8.81a4.12,4.12,0,1,1-4.12,4.12A4.13,4.13,0,0,1,25.31,8.81Z"/><line class="cls-2" x1="25.08" y1="33.6" x2="25.57" y2="33.6"/><polyline class="cls-2" points="29.46 33.6 50.15 33.6 50.15 0.5 0.5 0.5 0.5 33.6 21.19 33.6"/><rect class="cls-2" x="4.64" y="4.64" width="41.38" height="24.83"/><polyline class="cls-2" points="4.64 29.46 17.05 17.05 29.55 29.55"/><polyline class="cls-2" points="25.33 25.33 41.84 8.81 46.02 12.91"/><path class="cls-2" d="M25.31,8.81a4.12,4.12,0,1,1-4.12,4.12A4.13,4.13,0,0,1,25.31,8.81Z"/></g></g></svg>