<svg xmlns="http://www.w3.org/2000/svg" viewBox="0 0 50.65 50.65"><defs><style>.cls-1{fill:#f2f2f2;}.cls-1,.cls-2{fill-rule:evenodd;}.cls-2{fill:#ffd983;}.cls-3{fill:none;stroke:#000;stroke-linecap:round;stroke-linejoin:round;}</style></defs><title>Asset 18</title><g id="Layer_2" data-name="Layer 2"><g id="Layer_1-2" data-name="Layer 1"><path class="cls-1" d="M50.15,29.46A16.55,16.55,0,0,0,33.6,12.91H17.05A16.55,16.55,0,0,0,.5,29.46V33.6H50.15Z"/><path class="cls-2" d="M17.05,12.91H33.6V8.78H17.05ZM33.6,33.6H17.05a8.27,8.27,0,0,0,8.27,8.27h0A8.28,8.28,0,0,0,33.6,33.6Z"/><rect class="cls-3" x="17.05" y="8.78" width="16.55" height="4.14"/><path class="cls-3" d="M6.1,17.05a16.88,16.88,0,0,0-1.46,1.47"/><path class="cls-3" d="M2.35,21.85A16.52,16.52,0,0,0,.5,29.46V33.6H50.15V29.46A16.55,16.55,0,0,0,33.6,12.91H17.05a16.39,16.39,0,0,0-7.71,1.91"/><path class="cls-3" d="M33.6,33.6H17.05a8.27,8.27,0,0,0,8.27,8.27h0A8.28,8.28,0,0,0,33.6,33.6Z"/><line class="cls-3" x1="25.33" y1="50.15" x2="25.33" y2="46.01"/><line class="cls-3" x1="17.05" y1="47.93" x2="19.12" y2="44.35"/><line class="cls-3" x1="33.6" y1="47.93" x2="31.53" y2="44.35"/><line class="cls-3" x1="25.33" y1="8.78" x2="25.33" y2="0.5"/></g></g></svg>