<svg xmlns="http://www.w3.org/2000/svg" viewBox="0 0 34.1 50.65"><defs><style>.cls-1{fill:#ff749a;fill-rule:evenodd;}.cls-2{fill:#f2f2f2;}.cls-3{fill:none;stroke:#000;stroke-linecap:round;stroke-linejoin:round;}</style></defs><title>Asset 3</title><g id="Layer_2" data-name="Layer 2"><g id="Layer_1-2" data-name="Layer 1"><path class="cls-1" d="M29.41.5Zm-2.05.57a4.21,4.21,0,0,0-.82.64,4.28,4.28,0,0,0-.64.83A4.19,4.19,0,0,1,27.36,1.07Zm-2,3.52Zm0,0v0ZM29.46.5h0a4.14,4.14,0,1,1-4.13,4.14V50.15H.5V4.63A4.13,4.13,0,0,1,4.63.5Z"/><rect class="cls-2" x="0.5" y="41.88" width="24.83" height="8.28"/><circle class="cls-2" cx="29.46" cy="4.64" r="4.14"/><circle class="cls-3" cx="29.46" cy="4.64" r="4.14"/><line class="cls-3" x1="12.58" y1="50.15" x2="13.25" y2="50.15"/><path class="cls-3" d="M17.05,50.15h8.28V4.64A4.13,4.13,0,0,1,29.46.5H4.63A4.13,4.13,0,0,0,.5,4.63V50.15H8.78"/><line class="cls-3" x1="4.64" y1="46.01" x2="8.78" y2="46.01"/><line class="cls-3" x1="17.05" y1="46.01" x2="21.19" y2="46.01"/><line class="cls-3" x1="0.5" y1="41.88" x2="25.33" y2="41.88"/><polyline class="cls-3" points="0.5 33.6 4.64 29.46 8.78 33.6 12.91 29.46 17.05 33.6 21.19 29.46 25.33 33.6"/><polyline class="cls-3" points="0.5 23.26 4.64 19.12 8.78 23.26 12.91 19.12 17.05 23.26 21.19 19.12 25.33 23.26"/><polyline class="cls-3" points="0.5 12.91 4.64 8.78 8.78 12.91 12.91 8.78 17.05 12.91 21.19 8.78 25.33 12.91"/></g></g></svg>