<svg xmlns="http://www.w3.org/2000/svg" viewBox="0 0 50.65 34.1"><defs><style>.cls-1{fill:#c5dd7e;}.cls-1,.cls-2,.cls-3{fill-rule:evenodd;}.cls-2{fill:#f2f2f2;}.cls-3{fill:#67a5ff;}.cls-4{fill:none;stroke:#000;stroke-linecap:round;stroke-linejoin:round;}</style></defs><title>Asset 17</title><g id="Layer_2" data-name="Layer 2"><g id="Layer_1-2" data-name="Layer 1"><path class="cls-1" d="M50.15,4.64a4.13,4.13,0,0,0-1.21-2.93A4.17,4.17,0,0,0,46,.5H4.64A4.13,4.13,0,0,0,.5,4.64V29.46H50.15Z"/><polygon class="cls-2" points="12.91 12.93 17.05 12.93 17.05 29.55 33.6 29.55 33.6 12.93 37.74 12.93 37.74 0.5 12.91 0.5 12.91 12.93"/><path class="cls-3" d="M21.19,17.05h8.27V12.93H21.19ZM41.88,33.6H46V29.55H41.88Zm-37.24,0H8.78V29.55H4.64Z"/><rect class="cls-4" x="4.64" y="29.55" width="4.14" height="4.06"/><rect class="cls-4" x="41.88" y="29.55" width="4.14" height="4.06"/><line class="cls-4" x1="24.97" y1="29.46" x2="25.69" y2="29.46"/><path class="cls-4" d="M29.46,29.46H50.15V4.64a4.13,4.13,0,0,0-1.21-2.93A4.17,4.17,0,0,0,46,.5H4.64A4.13,4.13,0,0,0,.5,4.64V29.46H21.19"/><line class="cls-4" x1="0.5" y1="12.91" x2="50.15" y2="12.91"/><polyline class="cls-4" points="12.91 0.5 12.91 12.93 37.74 12.93 37.74 0.5"/><rect class="cls-4" x="21.19" y="12.93" width="8.28" height="4.12"/><polyline class="cls-4" points="33.6 29.46 33.6 12.93 17.05 12.93 17.05 29.46"/></g></g></svg>