<svg xmlns="http://www.w3.org/2000/svg" viewBox="0 0 50.65 34.1"><defs><style>.cls-1{fill:#c5dd7e;}.cls-2{fill:#f2f2f2;fill-rule:evenodd;}.cls-3{fill:none;stroke:#000;stroke-linecap:round;stroke-linejoin:round;}</style></defs><title>Asset 9</title><g id="Layer_2" data-name="Layer 2"><g id="Layer_1-2" data-name="Layer 1"><rect class="cls-1" x="0.5" y="0.5" width="49.65" height="28.96"/><path class="cls-2" d="M4.64,25.33H46V4.64H4.64ZM41.88,33.6H46V29.46H41.88Zm-37.24,0H8.78V29.46H4.64Z"/><path class="cls-3" d="M4.64,25.33H46V4.64H4.64ZM41.88,33.6H46V29.46H41.88Zm-37.24,0H8.78V29.46H4.64Z"/><line class="cls-3" x1="25.05" y1="29.46" x2="25.6" y2="29.46"/><polyline class="cls-3" points="29.46 29.46 50.15 29.46 50.15 0.5 0.5 0.5 0.5 29.46 21.19 29.46"/><rect class="cls-3" x="4.64" y="29.46" width="4.14" height="4.14"/><rect class="cls-3" x="41.88" y="29.46" width="4.14" height="4.14"/><rect class="cls-3" x="4.64" y="4.64" width="41.38" height="20.69"/><rect class="cls-3" x="8.78" y="10.84" width="4.14" height="8.28"/><polyline class="cls-3" points="17.05 10.84 21.19 10.84 21.19 14.98 17.05 14.98 17.05 19.12 21.19 19.12"/><rect class="cls-3" x="29.46" y="10.84" width="4.14" height="8.28"/><rect class="cls-3" x="37.74" y="10.84" width="4.14" height="8.28"/><line class="cls-3" x1="25.33" y1="12.46" x2="25.33" y2="13.37"/><line class="cls-3" x1="25.33" y1="16.6" x2="25.33" y2="17.51"/></g></g></svg>