<svg xmlns="http://www.w3.org/2000/svg" viewBox="0 0 34.1 50.65"><defs><style>.cls-1{fill:#c5dd7e;}.cls-1,.cls-2{fill-rule:evenodd;}.cls-2{fill:#f2f2f2;}.cls-3{fill:none;stroke:#000;stroke-linecap:round;stroke-linejoin:round;}</style></defs><title>Asset 5</title><g id="Layer_2" data-name="Layer 2"><g id="Layer_1-2" data-name="Layer 1"><path class="cls-1" d="M33.6,17.05a16.55,16.55,0,0,0-33.1,0v33.1H33.6Z"/><path class="cls-2" d="M29.46,17.05a12.41,12.41,0,1,0-24.82,0V46H29.46Z"/><path class="cls-3" d="M29.46,17.05a12.41,12.41,0,1,0-24.82,0V46H29.46Z"/><line class="cls-3" x1="16.76" y1="50.15" x2="17.34" y2="50.15"/><path class="cls-3" d="M21.19,50.15H33.6V17.05a16.55,16.55,0,0,0-33.1,0v33.1H12.91"/><path class="cls-3" d="M29.46,17.05a12.41,12.41,0,1,0-24.82,0V46H29.46Z"/><line class="cls-3" x1="10.84" y1="12.87" x2="12.99" y2="10.72"/><line class="cls-3" x1="19.12" y1="10.72" x2="10.72" y2="19.12"/></g></g></svg>