<svg xmlns="http://www.w3.org/2000/svg" viewBox="0 0 50.65 50.65"><defs><style>.cls-1,.cls-3{fill:#ff749a;}.cls-1,.cls-2{fill-rule:evenodd;}.cls-2{fill:#f2f2f2;}.cls-4{fill:none;stroke:#000;stroke-linecap:round;stroke-linejoin:round;}</style></defs><title>Asset 6</title><g id="Layer_2" data-name="Layer 2"><g id="Layer_1-2" data-name="Layer 1"><path class="cls-1" d="M35.67,50.15A4.14,4.14,0,0,0,31.53,46H19.12A4.14,4.14,0,0,0,15,50.15Z"/><polygon class="cls-2" points="0.5 37.74 21.19 37.74 21.19 46.02 29.46 46.02 29.46 37.74 50.15 37.74 50.15 0.5 0.5 0.5 0.5 37.74"/><rect class="cls-3" x="0.5" y="33.6" width="49.65" height="4.14"/><rect class="cls-4" x="0.5" y="0.5" width="49.65" height="37.24"/><line class="cls-4" x1="4.64" y1="6.79" x2="6.79" y2="4.64"/><line class="cls-4" x1="12.91" y1="4.64" x2="4.51" y2="13.04"/><line class="cls-4" x1="25.04" y1="50.15" x2="25.61" y2="50.15"/><path class="cls-4" d="M29.46,50.15h6.21A4.14,4.14,0,0,0,31.53,46H19.12A4.14,4.14,0,0,0,15,50.15h6.21"/><line class="cls-4" x1="50.15" y1="33.6" x2="0.5" y2="33.6"/><rect class="cls-4" x="21.19" y="37.74" width="8.28" height="8.28"/></g></g></svg>