<svg xmlns="http://www.w3.org/2000/svg" viewBox="0 0 50.65 42.38"><defs><style>.cls-1{fill:#67a5ff;}.cls-1,.cls-2{fill-rule:evenodd;}.cls-2{fill:#f2f2f2;}.cls-3{fill:none;stroke:#000;stroke-linecap:round;stroke-linejoin:round;}</style></defs><title>Asset 22</title><g id="Layer_2" data-name="Layer 2"><g id="Layer_1-2" data-name="Layer 1"><path class="cls-1" d="M4.64,21.19V4.64A4.13,4.13,0,0,1,5.85,1.71,4.17,4.17,0,0,1,8.78.5h33.1A4.13,4.13,0,0,1,46,4.64V21.19a4.14,4.14,0,0,1,4.14,4.14v8.28A4.13,4.13,0,0,1,46,37.74H4.63a4.17,4.17,0,0,1-2.92-1.21A4.13,4.13,0,0,1,.5,33.61V25.33A4.14,4.14,0,0,1,4.64,21.19Z"/><path class="cls-2" d="M39.81,4.64a2.07,2.07,0,1,1-2.07,2.07A2.07,2.07,0,0,1,39.81,4.64Zm-29,0A2.07,2.07,0,1,1,8.78,6.71,2.06,2.06,0,0,1,10.84,4.64ZM8.78,29.46h33.1V25.33H8.78Zm29,12.42h4.14V37.74H37.74Zm-29,0h4.13V37.74H8.78Z"/><rect class="cls-3" x="8.78" y="37.74" width="4.14" height="4.14"/><rect class="cls-3" x="37.74" y="37.74" width="4.14" height="4.14"/><path class="cls-3" d="M25,37.74h.61"/><path class="cls-3" d="M29.46,37.74H46a4.13,4.13,0,0,0,4.13-4.13V25.33a4.14,4.14,0,1,0-8.27,0v4.13H8.78V25.33a4.14,4.14,0,0,0-8.28,0v8.28a4.13,4.13,0,0,0,1.21,2.92,4.17,4.17,0,0,0,2.92,1.21H21.19"/><rect class="cls-3" x="8.78" y="25.33" width="16.55" height="4.14"/><rect class="cls-3" x="25.33" y="25.33" width="16.55" height="4.14"/><path class="cls-3" d="M4.64,21.19V4.64A4.13,4.13,0,0,1,5.85,1.71,4.17,4.17,0,0,1,8.78.5h33.1A4.13,4.13,0,0,1,46,4.64V21.19"/><path class="cls-3" d="M10.84,4.64A2.07,2.07,0,1,1,8.78,6.71,2.06,2.06,0,0,1,10.84,4.64Z"/><path class="cls-3" d="M39.81,4.64a2.07,2.07,0,1,1-2.07,2.07A2.07,2.07,0,0,1,39.81,4.64Z"/></g></g></svg>