<svg xmlns="http://www.w3.org/2000/svg" viewBox="0 0 34.1 50.65"><defs><style>.cls-1{fill:#ffd983;}.cls-2{fill:#f2f2f2;}.cls-3{fill:none;stroke:#000;stroke-linecap:round;stroke-linejoin:round;}</style></defs><title>Asset 21</title><g id="Layer_2" data-name="Layer 2"><g id="Layer_1-2" data-name="Layer 1"><rect class="cls-1" x="0.5" y="4.64" width="33.1" height="41.38"/><rect class="cls-2" x="4.64" y="8.78" width="24.83" height="33.1"/><rect class="cls-1" x="11.2" y="19.47" width="11.7" height="11.7" transform="translate(-12.91 19.47) rotate(-45)"/><line class="cls-3" x1="0.5" y1="37.43" x2="0.5" y2="38.05"/><polyline class="cls-3" points="0.5 41.88 0.5 46.02 33.6 46.02 33.6 4.64 0.5 4.64 0.5 33.6"/><polyline class="cls-3" points="0.5 0.5 0.5 4.64 6.71 4.64 6.71 0.5"/><polyline class="cls-3" points="0.5 50.15 0.5 46.02 6.71 46.02 6.71 50.15"/><polyline class="cls-3" points="12.91 0.5 12.91 4.64 21.19 4.64 21.19 0.5"/><polyline class="cls-3" points="12.91 50.15 12.91 46.02 21.19 46.02 21.19 50.15"/><polyline class="cls-3" points="27.39 0.5 27.39 4.64 33.6 4.64 33.6 0.5"/><polyline class="cls-3" points="27.39 50.15 27.39 46.02 33.6 46.02 33.6 50.15"/><rect class="cls-3" x="4.64" y="8.78" width="24.83" height="33.1"/><rect class="cls-3" x="11.2" y="19.47" width="11.7" height="11.7" transform="translate(-12.91 19.47) rotate(-45)"/></g></g></svg>